<svg width="128" height="44" viewBox="0 0 128 44" fill="none" xmlns="http://www.w3.org/2000/svg">
<rect width="127.935" height="44" rx="7.02821" fill="black"/>
<path d="M23.7919 22.6969C23.7654 19.9273 26.1958 18.5799 26.3069 18.5172C24.9305 16.6241 22.7971 16.3655 22.0474 16.3448C20.2557 16.167 18.5176 17.3563 17.6049 17.3563C16.6739 17.3563 15.2683 16.362 13.7535 16.3912C11.8041 16.4196 9.98044 17.4843 8.98024 19.1376C6.91609 22.5087 8.45555 27.4627 10.4332 30.1876C11.4224 31.5221 12.5784 33.0121 14.0914 32.9597C15.5717 32.9021 16.1246 32.0695 17.9109 32.0695C19.6809 32.0695 20.2001 32.9597 21.7432 32.9262C23.3318 32.9021 24.332 31.5857 25.2867 30.2391C26.4299 28.7095 26.889 27.2032 26.9072 27.1258C26.8699 27.1138 23.8219 26.0164 23.7919 22.6969Z" fill="white"/>
<path d="M20.8769 14.5523C21.6731 13.6131 22.2178 12.3353 22.0666 11.0386C20.9143 11.0867 19.4732 11.7905 18.6433 12.7091C17.9091 13.5186 17.2533 14.8453 17.4227 16.0931C18.7171 16.1842 20.0461 15.4769 20.8769 14.5523Z" fill="white"/>
<path d="M34.7495 18.7046V11.0046H37.1145C38.4712 11.0046 39.4685 11.3493 40.1065 12.0386C40.7519 12.7279 41.0745 13.6739 41.0745 14.8766C41.0745 16.0573 40.7519 16.9923 40.1065 17.6816C39.4685 18.3636 38.4712 18.7046 37.1145 18.7046H34.7495ZM35.6735 17.9346H37.0925C37.8405 17.9346 38.4345 17.8136 38.8745 17.5716C39.3219 17.3223 39.6409 16.9703 39.8315 16.5156C40.0222 16.0536 40.1175 15.5073 40.1175 14.8766C40.1175 14.2313 40.0222 13.6776 39.8315 13.2156C39.6409 12.7536 39.3219 12.3979 38.8745 12.1486C38.4345 11.8993 37.8405 11.7746 37.0925 11.7746H35.6735V17.9346ZM44.8397 18.8366C44.3264 18.8366 43.8644 18.7193 43.4537 18.4846C43.0431 18.2499 42.7167 17.9199 42.4747 17.4946C42.2401 17.0619 42.1227 16.5559 42.1227 15.9766C42.1227 15.3973 42.2437 14.8949 42.4857 14.4696C42.7277 14.0369 43.0541 13.7033 43.4647 13.4686C43.8827 13.2339 44.3484 13.1166 44.8617 13.1166C45.3751 13.1166 45.8371 13.2339 46.2477 13.4686C46.6584 13.7033 46.9811 14.0369 47.2157 14.4696C47.4577 14.8949 47.5787 15.3973 47.5787 15.9766C47.5787 16.5559 47.4577 17.0619 47.2157 17.4946C46.9737 17.9199 46.6437 18.2499 46.2257 18.4846C45.8151 18.7193 45.3531 18.8366 44.8397 18.8366ZM44.8397 18.0446C45.1551 18.0446 45.4484 17.9676 45.7197 17.8136C45.9911 17.6596 46.2111 17.4286 46.3797 17.1206C46.5484 16.8126 46.6327 16.4313 46.6327 15.9766C46.6327 15.5219 46.5484 15.1406 46.3797 14.8326C46.2184 14.5246 46.0021 14.2936 45.7307 14.1396C45.4594 13.9856 45.1697 13.9086 44.8617 13.9086C44.5464 13.9086 44.2531 13.9856 43.9817 14.1396C43.7104 14.2936 43.4904 14.5246 43.3217 14.8326C43.1531 15.1406 43.0687 15.5219 43.0687 15.9766C43.0687 16.4313 43.1531 16.8126 43.3217 17.1206C43.4904 17.4286 43.7067 17.6596 43.9707 17.8136C44.2421 17.9676 44.5317 18.0446 44.8397 18.0446ZM49.7594 18.7046L48.1644 13.2486H49.0884L50.2434 17.5276L51.5194 13.2486H52.5644L53.8514 17.5276L54.9954 13.2486H55.9304L54.3354 18.7046H53.3894L52.0474 14.2056L50.7054 18.7046H49.7594ZM56.9524 18.7046V13.2486H57.7884L57.8434 14.2276C58.0194 13.8829 58.2724 13.6116 58.6024 13.4136C58.9324 13.2156 59.3064 13.1166 59.7244 13.1166C60.3697 13.1166 60.883 13.3146 61.2644 13.7106C61.653 14.0993 61.8474 14.7006 61.8474 15.5146V18.7046H60.9234V15.6136C60.9234 14.4769 60.454 13.9086 59.5154 13.9086C59.046 13.9086 58.6537 14.0809 58.3384 14.4256C58.0304 14.7629 57.8764 15.2469 57.8764 15.8776V18.7046H56.9524ZM63.2473 18.7046V10.7846H64.1713V18.7046H63.2473ZM68.1718 18.8366C67.6584 18.8366 67.1964 18.7193 66.7858 18.4846C66.3751 18.2499 66.0488 17.9199 65.8068 17.4946C65.5721 17.0619 65.4548 16.5559 65.4548 15.9766C65.4548 15.3973 65.5758 14.8949 65.8178 14.4696C66.0598 14.0369 66.3861 13.7033 66.7968 13.4686C67.2148 13.2339 67.6804 13.1166 68.1938 13.1166C68.7071 13.1166 69.1691 13.2339 69.5798 13.4686C69.9904 13.7033 70.3131 14.0369 70.5478 14.4696C70.7898 14.8949 70.9108 15.3973 70.9108 15.9766C70.9108 16.5559 70.7898 17.0619 70.5478 17.4946C70.3058 17.9199 69.9758 18.2499 69.5578 18.4846C69.1471 18.7193 68.6851 18.8366 68.1718 18.8366ZM68.1718 18.0446C68.4871 18.0446 68.7804 17.9676 69.0518 17.8136C69.3231 17.6596 69.5431 17.4286 69.7118 17.1206C69.8804 16.8126 69.9648 16.4313 69.9648 15.9766C69.9648 15.5219 69.8804 15.1406 69.7118 14.8326C69.5504 14.5246 69.3341 14.2936 69.0628 14.1396C68.7914 13.9856 68.5018 13.9086 68.1938 13.9086C67.8784 13.9086 67.5851 13.9856 67.3138 14.1396C67.0424 14.2936 66.8224 14.5246 66.6538 14.8326C66.4851 15.1406 66.4008 15.5219 66.4008 15.9766C66.4008 16.4313 66.4851 16.8126 66.6538 17.1206C66.8224 17.4286 67.0388 17.6596 67.3028 17.8136C67.5741 17.9676 67.8638 18.0446 68.1718 18.0446ZM74.0105 18.8366C73.5559 18.8366 73.1782 18.7596 72.8775 18.6056C72.5769 18.4516 72.3532 18.2463 72.2065 17.9896C72.0599 17.7329 71.9865 17.4543 71.9865 17.1536C71.9865 16.5963 72.1992 16.1673 72.6245 15.8666C73.0499 15.5659 73.6292 15.4156 74.3625 15.4156H75.8365V15.3496C75.8365 14.8729 75.7119 14.5136 75.4625 14.2716C75.2132 14.0223 74.8795 13.8976 74.4615 13.8976C74.1022 13.8976 73.7905 13.9893 73.5265 14.1726C73.2699 14.3486 73.1085 14.6089 73.0425 14.9536H72.0965C72.1332 14.5576 72.2652 14.2239 72.4925 13.9526C72.7272 13.6813 73.0169 13.4759 73.3615 13.3366C73.7062 13.1899 74.0729 13.1166 74.4615 13.1166C75.2242 13.1166 75.7962 13.3219 76.1775 13.7326C76.5662 14.1359 76.7605 14.6749 76.7605 15.3496V18.7046H75.9355L75.8805 17.7256C75.7265 18.0336 75.4992 18.2976 75.1985 18.5176C74.9052 18.7303 74.5092 18.8366 74.0105 18.8366ZM74.1535 18.0556C74.5055 18.0556 74.8062 17.9639 75.0555 17.7806C75.3122 17.5973 75.5065 17.3589 75.6385 17.0656C75.7705 16.7723 75.8365 16.4643 75.8365 16.1416V16.1306H74.4395C73.8969 16.1306 73.5119 16.2259 73.2845 16.4166C73.0645 16.5999 72.9545 16.8309 72.9545 17.1096C72.9545 17.3956 73.0572 17.6266 73.2625 17.8026C73.4752 17.9713 73.7722 18.0556 74.1535 18.0556ZM80.6217 18.8366C80.079 18.8366 79.6024 18.7119 79.1917 18.4626C78.7884 18.2133 78.473 17.8723 78.2457 17.4396C78.0257 17.0069 77.9157 16.5156 77.9157 15.9656C77.9157 15.4156 78.0294 14.9279 78.2567 14.5026C78.484 14.0699 78.7994 13.7326 79.2027 13.4906C79.606 13.2413 80.0827 13.1166 80.6327 13.1166C81.08 13.1166 81.476 13.2083 81.8207 13.3916C82.1654 13.5749 82.433 13.8316 82.6237 14.1616V10.7846H83.5477V18.7046H82.7117L82.6237 17.8026C82.4477 18.0666 82.1947 18.3049 81.8647 18.5176C81.5347 18.7303 81.1204 18.8366 80.6217 18.8366ZM80.7207 18.0336C81.0874 18.0336 81.41 17.9493 81.6887 17.7806C81.9747 17.6046 82.1947 17.3626 82.3487 17.0546C82.51 16.7466 82.5907 16.3873 82.5907 15.9766C82.5907 15.5659 82.51 15.2066 82.3487 14.8986C82.1947 14.5906 81.9747 14.3523 81.6887 14.1836C81.41 14.0076 81.0874 13.9196 80.7207 13.9196C80.3614 13.9196 80.0387 14.0076 79.7527 14.1836C79.474 14.3523 79.254 14.5906 79.0927 14.8986C78.9387 15.2066 78.8617 15.5659 78.8617 15.9766C78.8617 16.3873 78.9387 16.7466 79.0927 17.0546C79.254 17.3626 79.474 17.6046 79.7527 17.7806C80.0387 17.9493 80.3614 18.0336 80.7207 18.0336ZM90.4511 18.8366C89.9377 18.8366 89.4757 18.7193 89.0651 18.4846C88.6544 18.2499 88.3281 17.9199 88.0861 17.4946C87.8514 17.0619 87.7341 16.5559 87.7341 15.9766C87.7341 15.3973 87.8551 14.8949 88.0971 14.4696C88.3391 14.0369 88.6654 13.7033 89.0761 13.4686C89.4941 13.2339 89.9597 13.1166 90.4731 13.1166C90.9864 13.1166 91.4484 13.2339 91.8591 13.4686C92.2697 13.7033 92.5924 14.0369 92.8271 14.4696C93.0691 14.8949 93.1901 15.3973 93.1901 15.9766C93.1901 16.5559 93.0691 17.0619 92.8271 17.4946C92.5851 17.9199 92.2551 18.2499 91.8371 18.4846C91.4264 18.7193 90.9644 18.8366 90.4511 18.8366ZM90.4511 18.0446C90.7664 18.0446 91.0597 17.9676 91.3311 17.8136C91.6024 17.6596 91.8224 17.4286 91.9911 17.1206C92.1597 16.8126 92.2441 16.4313 92.2441 15.9766C92.2441 15.5219 92.1597 15.1406 91.9911 14.8326C91.8297 14.5246 91.6134 14.2936 91.3421 14.1396C91.0707 13.9856 90.7811 13.9086 90.4731 13.9086C90.1577 13.9086 89.8644 13.9856 89.5931 14.1396C89.3217 14.2936 89.1017 14.5246 88.9331 14.8326C88.7644 15.1406 88.6801 15.5219 88.6801 15.9766C88.6801 16.4313 88.7644 16.8126 88.9331 17.1206C89.1017 17.4286 89.3181 17.6596 89.5821 17.8136C89.8534 17.9676 90.1431 18.0446 90.4511 18.0446ZM94.4748 18.7046V13.2486H95.3108L95.3658 14.2276C95.5418 13.8829 95.7948 13.6116 96.1248 13.4136C96.4548 13.2156 96.8288 13.1166 97.2468 13.1166C97.8922 13.1166 98.4055 13.3146 98.7868 13.7106C99.1755 14.0993 99.3698 14.7006 99.3698 15.5146V18.7046H98.4458V15.6136C98.4458 14.4769 97.9765 13.9086 97.0378 13.9086C96.5685 13.9086 96.1762 14.0809 95.8608 14.4256C95.5528 14.7629 95.3988 15.2469 95.3988 15.8776V18.7046H94.4748ZM105.837 18.7046C105.338 18.7046 104.946 18.5836 104.66 18.3416C104.374 18.0996 104.231 17.6633 104.231 17.0326V14.0296H103.285V13.2486H104.231L104.352 11.9396H105.155V13.2486H106.761V14.0296H105.155V17.0326C105.155 17.3773 105.225 17.6119 105.364 17.7366C105.503 17.8539 105.749 17.9126 106.101 17.9126H106.673V18.7046H105.837ZM107.935 18.7046V10.7846H108.859V14.1836C109.042 13.8463 109.302 13.5859 109.64 13.4026C109.977 13.2119 110.344 13.1166 110.74 13.1166C111.37 13.1166 111.876 13.3146 112.258 13.7106C112.639 14.0993 112.83 14.7006 112.83 15.5146V18.7046H111.917V15.6136C111.917 14.4769 111.458 13.9086 110.542 13.9086C110.065 13.9086 109.665 14.0809 109.343 14.4256C109.02 14.7629 108.859 15.2469 108.859 15.8776V18.7046H107.935ZM116.683 18.8366C116.162 18.8366 115.7 18.7193 115.297 18.4846C114.893 18.2426 114.574 17.9089 114.34 17.4836C114.112 17.0583 113.999 16.5559 113.999 15.9766C113.999 15.4046 114.112 14.9059 114.34 14.4806C114.567 14.0479 114.882 13.7143 115.286 13.4796C115.696 13.2376 116.169 13.1166 116.705 13.1166C117.233 13.1166 117.687 13.2376 118.069 13.4796C118.457 13.7143 118.754 14.0259 118.96 14.4146C119.165 14.8033 119.268 15.2213 119.268 15.6686C119.268 15.7493 119.264 15.8299 119.257 15.9106C119.257 15.9913 119.257 16.0829 119.257 16.1856H114.912C114.934 16.6036 115.029 16.9519 115.198 17.2306C115.374 17.5019 115.59 17.7073 115.847 17.8466C116.111 17.9859 116.389 18.0556 116.683 18.0556C117.064 18.0556 117.383 17.9676 117.64 17.7916C117.896 17.6156 118.083 17.3773 118.201 17.0766H119.114C118.967 17.5826 118.685 18.0043 118.267 18.3416C117.856 18.6716 117.328 18.8366 116.683 18.8366ZM116.683 13.8976C116.243 13.8976 115.85 14.0333 115.506 14.3046C115.168 14.5686 114.974 14.9573 114.923 15.4706H118.355C118.333 14.9793 118.164 14.5943 117.849 14.3156C117.533 14.0369 117.145 13.8976 116.683 13.8976Z" fill="white"/>
<path d="M42.6703 36.0194H40.9047L39.9375 32.7439H36.5758L35.6545 36.0194H33.9355L37.2662 24.8682H39.3233L42.6703 36.0194ZM39.646 31.3697L38.7713 28.4579C38.6788 28.1604 38.5054 27.4599 38.2496 26.3572H38.2185C38.1167 26.8314 37.9527 27.532 37.7272 28.4579L36.8681 31.3697H39.646Z" fill="white"/>
<path d="M51.2343 31.9001C51.2343 33.2676 50.8914 34.3485 50.2057 35.142C49.5915 35.8484 48.8288 36.2012 47.9184 36.2012C46.9357 36.2012 46.2298 35.8208 45.7999 35.0599H45.7688V39.2957H44.1112V30.6256C44.1112 29.7659 44.0902 28.8835 44.0498 27.9785H45.5075L45.6001 29.253H45.6312C46.1839 28.2928 47.0228 27.8135 48.1486 27.8135C49.0286 27.8135 49.7633 28.188 50.3511 28.938C50.9404 29.6888 51.2343 30.6759 51.2343 31.9001ZM49.5456 31.9654C49.5456 31.1828 49.3824 30.5376 49.0543 30.0298C48.6959 29.5002 48.2146 29.2355 47.6113 29.2355C47.2024 29.2355 46.8308 29.3829 46.4988 29.6737C46.166 29.967 45.9483 30.3499 45.8465 30.8242C45.7952 31.0454 45.7695 31.2264 45.7695 31.3688V32.7095C45.7695 33.2944 45.9359 33.7879 46.2687 34.191C46.6014 34.594 47.0337 34.7951 47.5655 34.7951C48.1898 34.7951 48.6757 34.5354 49.0232 34.0175C49.3715 33.4989 49.5456 32.8151 49.5456 31.9654Z" fill="white"/>
<path d="M59.8141 31.9001C59.8141 33.2676 59.4712 34.3485 58.7847 35.142C58.1713 35.8484 57.4086 36.2012 56.4982 36.2012C55.5155 36.2012 54.8096 35.8208 54.3804 35.0599H54.3493V39.2957H52.6918V30.6256C52.6918 29.7659 52.6708 28.8835 52.6304 27.9785H54.0881L54.1806 29.253H54.2117C54.7637 28.2928 55.6026 27.8135 56.7291 27.8135C57.6084 27.8135 58.3431 28.188 58.9324 28.938C59.5194 29.6888 59.8141 30.6759 59.8141 31.9001ZM58.1254 31.9654C58.1254 31.1828 57.9614 30.5376 57.6333 30.0298C57.2749 29.5002 56.7952 29.2355 56.1911 29.2355C55.7814 29.2355 55.4106 29.3829 55.0778 29.6737C54.7451 29.967 54.5281 30.3499 54.4263 30.8242C54.3758 31.0454 54.3493 31.2264 54.3493 31.3688V32.7095C54.3493 33.2944 54.5157 33.7879 54.8469 34.191C55.1796 34.5932 55.6119 34.7951 56.1453 34.7951C56.7696 34.7951 57.2555 34.5354 57.603 34.0175C57.9513 33.4989 58.1254 32.8151 58.1254 31.9654Z" fill="white"/>
<path d="M69.4118 32.892C69.4118 33.8406 69.1063 34.6123 68.4929 35.2081C67.8188 35.8592 66.8804 36.1843 65.6746 36.1843C64.5613 36.1843 63.6688 35.953 62.9932 35.4896L63.3772 34.0006C64.1049 34.4749 64.9034 34.7129 65.7733 34.7129C66.3976 34.7129 66.8836 34.5604 67.2326 34.257C67.5802 33.9537 67.7535 33.5465 67.7535 33.0387C67.7535 32.5862 67.6105 32.2049 67.3236 31.8957C67.0383 31.5865 66.5617 31.2991 65.8962 31.0335C64.0847 30.3053 63.1798 29.2386 63.1798 27.8359C63.1798 26.9192 63.497 26.1676 64.1321 25.5827C64.765 24.997 65.6093 24.7046 66.6651 24.7046C67.6066 24.7046 68.3887 24.8814 69.013 25.2342L68.5986 26.6905C68.0155 26.3486 67.3562 26.1777 66.6184 26.1777C66.0354 26.1777 65.5798 26.3327 65.2532 26.6411C64.9772 26.9167 64.8388 27.2527 64.8388 27.6508C64.8388 28.0915 64.9967 28.456 65.3139 28.7426C65.5899 29.0074 66.0913 29.294 66.819 29.6031C67.7092 29.9894 68.3631 30.4411 68.7837 30.9589C69.2027 31.4751 69.4118 32.1211 69.4118 32.892Z" fill="white"/>
<path d="M74.8896 29.3193H73.0626V33.2232C73.0626 34.2162 73.3845 34.7122 74.0298 34.7122C74.326 34.7122 74.5717 34.6846 74.766 34.6293L74.8119 35.9859C74.4854 36.1174 74.0554 36.1836 73.5229 36.1836C72.8683 36.1836 72.3567 35.9683 71.9874 35.5384C71.6197 35.1077 71.4346 34.3854 71.4346 33.3707V29.3176H70.3462V27.9769H71.4346V26.5047L73.0626 25.9751V27.9769H74.8896V29.3193Z" fill="white"/>
<path d="M83.1345 31.9324C83.1345 33.1684 82.8064 34.1831 82.1518 34.9766C81.4653 35.7936 80.5541 36.2008 79.4182 36.2008C78.3236 36.2008 77.452 35.8095 76.8021 35.0269C76.1521 34.2443 75.8271 33.2563 75.8271 32.0656C75.8271 30.8196 76.1615 29.799 76.8324 29.0055C77.5018 28.2111 78.4052 27.814 79.5411 27.814C80.6357 27.814 81.5166 28.2053 82.1813 28.9887C82.8172 29.7488 83.1345 30.73 83.1345 31.9324ZM81.4147 31.9902C81.4147 31.2487 81.2678 30.6127 80.97 30.0823C80.6225 29.4404 80.1257 29.1203 79.482 29.1203C78.8157 29.1203 78.3096 29.4412 77.962 30.0823C77.6643 30.6135 77.5173 31.2595 77.5173 32.0237C77.5173 32.7653 77.6643 33.4013 77.962 33.9309C78.3205 34.5727 78.8211 34.8928 79.4672 34.8928C80.1 34.8928 80.5968 34.566 80.9552 33.9141C81.2608 33.3737 81.4147 32.731 81.4147 31.9902Z" fill="white"/>
<path d="M88.5198 29.5497C88.3558 29.517 88.1808 29.5002 87.9973 29.5002C87.4142 29.5002 86.9633 29.7374 86.6461 30.2125C86.3701 30.6314 86.2317 31.161 86.2317 31.8004V36.0194H84.575L84.5905 30.5108C84.5905 29.584 84.5695 28.7402 84.5283 27.9794H85.9721L86.0327 29.5178H86.0786C86.2535 28.9891 86.5295 28.5634 86.9073 28.2442C87.2766 27.9568 87.6755 27.8135 88.1054 27.8135C88.2586 27.8135 88.397 27.8252 88.5198 27.8462V29.5497Z" fill="white"/>
<path d="M95.9358 31.6185C95.9358 31.9386 95.9164 32.2084 95.8752 32.4288H90.9026C90.922 33.2231 91.1622 33.8306 91.624 34.2496C92.0431 34.6241 92.585 34.8118 93.2505 34.8118C93.9867 34.8118 94.6584 34.6853 95.2625 34.4314L95.5222 35.6716C94.8163 36.0034 93.9828 36.1685 93.0211 36.1685C91.8643 36.1685 90.9562 35.8014 90.2954 35.0682C89.6361 34.3351 89.3057 33.3505 89.3057 32.1154C89.3057 30.9029 89.6128 29.8932 90.2277 29.0879C90.8715 28.2282 91.7414 27.7983 92.8361 27.7983C93.9113 27.7983 94.7253 28.2282 95.2781 29.0879C95.7158 29.7708 95.9358 30.6155 95.9358 31.6185ZM94.3552 31.1551C94.3661 30.6255 94.2581 30.168 94.0334 29.7817C93.7465 29.2848 93.3057 29.0368 92.7125 29.0368C92.1706 29.0368 91.7298 29.279 91.3931 29.765C91.1171 30.1513 90.9531 30.6146 90.9026 31.1543H94.3552V31.1551Z" fill="white"/>
</svg>
