<svg width="163" height="42" viewBox="0 0 163 42" fill="none" xmlns="http://www.w3.org/2000/svg">
<g clip-path="url(#clip0_28445_32353)">
<path d="M50.7969 17.8937C50.7969 17.0018 51.5219 16.476 52.8431 16.476C54.4244 16.476 55.3796 17.2999 55.5471 18.5546H60.7624C60.4002 14.927 57.757 12.291 53.0099 12.291C48.2629 12.291 45.5208 14.8631 45.5208 17.9932C45.5208 24.7541 55.5452 22.6115 55.5452 25.582C55.5452 26.4059 54.7885 27.0636 53.3353 27.0636C51.7831 27.0636 50.6313 26.2074 50.5 24.9178H44.9277C45.1909 28.4813 48.4912 31.217 53.4045 31.217C58.0228 31.217 60.858 28.8079 60.858 25.6104C60.7585 18.7551 50.7969 20.8285 50.7969 17.8937Z" fill="white"/>
<path d="M80.6799 21.4571C80.6799 15.8506 76.8888 12.291 71.5097 12.291C66.1308 12.291 62.209 15.9185 62.209 21.7559C62.209 27.5933 66.0991 31.2208 71.5104 31.2208C76.0968 31.2208 79.3622 28.4496 80.2536 24.8576H74.2493C74.0018 25.4198 73.5874 25.8922 73.0623 26.2107C72.5372 26.5291 71.9274 26.6781 71.3142 26.6375C69.5034 26.6375 68.0209 25.5186 67.822 23.1095H80.5872C80.6512 22.5612 80.6846 22.0098 80.6866 21.4578L80.6799 21.4571ZM67.8507 19.9754C67.9308 19.0886 68.3485 18.2664 69.0164 17.6776C69.6842 17.0889 70.5523 16.7783 71.4423 16.8097C73.2865 16.8097 74.9065 17.9641 74.9065 19.9754H67.8507Z" fill="white"/>
<path d="M95.3238 12.5586V15.1604C94.3323 13.5435 92.3887 12.2935 89.6498 12.2935C85.1274 12.2935 81.5352 15.921 81.5352 21.7228C81.5352 27.5246 85.1274 31.2227 89.6198 31.2227C90.7367 31.2745 91.8483 31.038 92.8477 30.5358C93.8466 30.0338 94.6999 29.283 95.3251 28.3557V30.9601H100.963V12.5586H95.3238ZM91.2985 26.3114C89.1881 26.3114 87.2732 24.6596 87.2732 21.7247C87.2732 18.7898 89.1881 17.2053 91.2985 17.2053C93.4089 17.2053 95.3238 18.8222 95.3238 21.7564C95.3238 24.6907 93.4442 26.3075 91.2985 26.3075V26.3114Z" fill="white"/>
<path d="M114.58 21.7919L122.233 12.5584H115.273L109.699 20.0444V6.55029H104.061V30.9579H109.699V23.2412L115.306 30.9579H122.297L114.58 21.7919Z" fill="white"/>
<path d="M135.985 12.5576V22.5483C135.985 25.0564 134.596 26.4384 132.422 26.4384C130.247 26.4384 128.89 25.0564 128.89 22.5483V12.5576H123.287V23.305C123.287 28.2202 126.154 31.157 130.407 31.157C131.486 31.1881 132.557 30.9581 133.528 30.4868C134.499 30.0155 135.342 29.3167 135.985 28.4497V30.9578H141.623V12.5576H135.985Z" fill="white"/>
<path d="M155.905 12.3583C154.834 12.3248 153.769 12.5463 152.799 13.0045C151.829 13.4629 150.982 14.1448 150.327 14.9944V12.5575H144.689V30.9551H150.327V20.9669C150.327 18.4589 151.717 17.0769 153.859 17.0769C156.001 17.0769 157.386 18.4589 157.386 20.9669V30.9551H162.993V20.2032C162.993 15.2576 160.158 12.3551 155.902 12.3551L155.905 12.3583Z" fill="white"/>
<path d="M20.0125 0.983398C16.0539 0.984166 12.1846 2.15866 8.89347 4.35838C5.60238 6.5581 3.03743 9.68425 1.52292 13.3416C0.00841142 16.999 -0.387652 21.0233 0.384807 24.9057C1.15727 28.7881 3.06356 32.3544 5.86267 35.1535C8.66175 37.9526 12.228 39.8589 16.1104 40.6314C19.9929 41.4038 24.0172 41.0077 27.6745 39.4932C31.3319 37.9787 34.4581 35.4138 36.6578 32.1227C38.8575 28.8316 40.032 24.9622 40.0327 21.0036C40.0327 18.3746 39.5149 15.7712 38.5088 13.3422C37.5027 10.9133 36.028 8.70625 34.1689 6.84719C32.3099 4.98814 30.1029 3.51346 27.6739 2.50735C25.2449 1.50124 22.6416 0.983398 20.0125 0.983398ZM32.6496 16.168C32.6464 16.2072 32.6352 16.2453 32.6169 16.2801C32.5985 16.3149 32.5734 16.3456 32.543 16.3705C32.4872 16.413 32.419 16.4358 32.3489 16.4351C32.3347 16.4351 31.8658 16.3782 31.8658 16.3782C31.8272 16.3746 31.7896 16.3633 31.7554 16.345C31.7211 16.3267 31.6909 16.3018 31.6664 16.2717C31.6419 16.2416 31.6237 16.2069 31.6127 16.1697C31.6017 16.1325 31.5983 16.0934 31.6026 16.0549C31.6026 16.0549 31.6595 15.3939 31.6595 15.0563C31.6602 12.9324 30.8626 10.8858 29.4251 9.32235C29.1867 9.0548 28.8728 8.86591 28.5248 8.78071C28.1768 8.69544 27.8111 8.71779 27.4761 8.84489C27.1411 8.972 26.8526 9.19778 26.6487 9.49242C26.4448 9.787 26.3352 10.1366 26.3343 10.4949L26.3272 26.9374C26.3253 28.7128 25.8303 30.4528 24.8974 31.9633C23.9643 33.4737 22.6301 34.6953 21.0434 35.4918C19.7491 36.145 18.3151 36.4731 16.8655 36.4476H16.8228C15.5737 36.4485 14.3367 36.2033 13.1825 35.726C12.0282 35.2486 10.9793 34.5485 10.0958 33.6656C9.2122 32.7827 8.5113 31.7343 8.0331 30.5805C7.55485 29.4265 7.30871 28.1897 7.30871 26.9406C7.30871 26.5675 7.37343 25.8321 7.37343 25.8321C7.3751 25.7921 7.38551 25.7529 7.40399 25.7172C7.42241 25.6816 7.44836 25.6504 7.48012 25.6258C7.53543 25.5826 7.60395 25.5597 7.67414 25.5612C7.68128 25.5612 8.15727 25.6142 8.15727 25.6142C8.23427 25.624 8.30459 25.663 8.35363 25.7232C8.40261 25.7834 8.42656 25.8601 8.42049 25.9375C8.42049 25.9408 8.36031 26.6018 8.36031 26.9394C8.35997 29.0639 9.15903 31.1108 10.5987 32.6733C10.8373 32.9401 11.1512 33.1284 11.4989 33.2132C11.8467 33.2981 12.2121 33.2755 12.5467 33.1486C12.8815 33.0216 13.1698 32.7962 13.3738 32.502C13.5778 32.2078 13.6878 31.8587 13.6894 31.5008V15.0628C13.6917 13.2818 14.19 11.5368 15.1286 10.0231C16.0671 8.50955 17.4087 7.28737 19.0029 6.49356C19.6386 6.16283 20.3164 5.92023 21.0175 5.77246C21.7186 5.61992 22.4343 5.54489 23.1517 5.54868C24.1598 5.54445 25.1623 5.69919 26.1222 6.00721C27.6298 6.49365 28.9916 7.34988 30.0834 8.49781C31.7858 10.2962 32.7276 12.6828 32.7124 15.1591C32.7098 15.4967 32.6496 16.168 32.6496 16.168Z" fill="white"/>
</g>
<defs>
<clipPath id="clip0_28445_32353">
<rect width="163" height="40.0327" fill="white" transform="translate(0 0.983398)"/>
</clipPath>
</defs>
</svg>
