<svg width="51" height="50" viewBox="0 0 51 50" fill="none" xmlns="http://www.w3.org/2000/svg">
<rect x="0.25" width="50" height="50" rx="10" fill="#1EC3A1"/>
<path d="M37.2506 19.6664C37.9579 19.6664 38.6362 19.9473 39.1363 20.4474C39.6364 20.9475 39.9173 21.6258 39.9173 22.333V27.6664C39.9173 28.3736 39.6364 29.0519 39.1363 29.552C38.6362 30.0521 37.9579 30.333 37.2506 30.333H35.8346C35.5096 32.9108 34.255 35.2813 32.3063 36.9997C30.3576 38.7181 27.8488 39.6663 25.2506 39.6664V36.9997C27.3724 36.9997 29.4072 36.1568 30.9075 34.6566C32.4078 33.1563 33.2506 31.1214 33.2506 28.9997V20.9997C33.2506 18.878 32.4078 16.8431 30.9075 15.3429C29.4072 13.8426 27.3724 12.9997 25.2506 12.9997C23.1289 12.9997 21.0941 13.8426 19.5938 15.3429C18.0935 16.8431 17.2506 18.878 17.2506 20.9997V30.333H13.2507C12.5434 30.333 11.8651 30.0521 11.365 29.552C10.8649 29.0519 10.584 28.3736 10.584 27.6664V22.333C10.584 21.6258 10.8649 20.9475 11.365 20.4474C11.8651 19.9473 12.5434 19.6664 13.2507 19.6664H14.6667C14.992 17.0889 16.2468 14.7187 18.1954 13.0006C20.1441 11.2825 22.6527 10.3345 25.2506 10.3345C27.8486 10.3345 30.3572 11.2825 32.3059 13.0006C34.2545 14.7187 35.5093 17.0889 35.8346 19.6664H37.2506ZM19.5973 30.0464L21.0106 27.785C22.2814 28.5811 23.7511 29.0021 25.2506 28.9997C26.7502 29.0021 28.2199 28.5811 29.4906 27.785L30.904 30.0464C29.2097 31.1079 27.25 31.6694 25.2506 31.6664C23.2513 31.6694 21.2916 31.1079 19.5973 30.0464Z" fill="white"/>
</svg>
