<svg width="51" height="50" viewBox="0 0 51 50" fill="none" xmlns="http://www.w3.org/2000/svg">
<rect x="0.25" width="50" height="50" rx="10" fill="#1EC3A1"/>
<path d="M25.2493 9.58643L38.5827 14.2531V24.9998C38.5827 30.5024 35.2053 34.3491 32.0547 36.7371C30.1541 38.1657 28.0684 39.3297 25.8547 40.1971L25.7387 40.2411L25.7053 40.2531L25.696 40.2558L25.692 40.2571C25.6907 40.2571 25.6893 40.2571 25.2493 38.9998L24.808 40.2584L24.8027 40.2558L24.7933 40.2531L24.76 40.2398L24.644 40.1971C24.0152 39.9539 23.3968 39.6843 22.7907 39.3891C21.2605 38.6458 19.805 37.7577 18.444 36.7371C15.2947 34.3491 11.916 30.5024 11.916 24.9998V14.2531L25.2493 9.58643ZM25.2493 38.9998L24.808 40.2584L25.2493 40.4131L25.6907 40.2584L25.2493 38.9998ZM25.2493 37.5704L25.2613 37.5651C27.1062 36.8025 28.8475 35.8102 30.444 34.6118C33.2947 32.4531 35.916 29.2971 35.916 24.9998V16.1464L25.2493 12.4131L14.5827 16.1464V24.9998C14.5827 29.2971 17.204 32.4504 20.0547 34.6131C21.6547 35.8139 23.4001 36.8075 25.2493 37.5704ZM33.3453 20.1238L23.9173 29.5518L18.26 23.8958L20.1467 22.0091L23.916 25.7811L31.4587 18.2384L33.3453 20.1238Z" fill="white"/>
</svg>
