<svg width="51" height="50" viewBox="0 0 51 50" fill="none" xmlns="http://www.w3.org/2000/svg">
<rect x="0.75" width="50" height="50" rx="10" fill="#1EC3A1"/>
<g clip-path="url(#clip0_28445_33717)">
<path d="M11.5098 19.369H39.9898M11.5098 20.4644H39.9898M15.8913 28.1321H24.6544M15.8913 31.4182H20.2728M14.7959 35.7998H36.7036C37.5752 35.7998 38.411 35.4536 39.0273 34.8373C39.6435 34.221 39.9898 33.3852 39.9898 32.5136V17.1782C39.9898 16.3067 39.6435 15.4709 39.0273 14.8546C38.411 14.2383 37.5752 13.8921 36.7036 13.8921H14.7959C13.9244 13.8921 13.0885 14.2383 12.4723 14.8546C11.856 15.4709 11.5098 16.3067 11.5098 17.1782V32.5136C11.5098 33.3852 11.856 34.221 12.4723 34.8373C13.0885 35.4536 13.9244 35.7998 14.7959 35.7998Z" stroke="white" stroke-width="2.5" stroke-linecap="round" stroke-linejoin="round"/>
</g>
<defs>
<clipPath id="clip0_28445_33717">
<rect width="32" height="32" fill="white" transform="translate(9.75 9)"/>
</clipPath>
</defs>
</svg>
