<svg width="51" height="50" viewBox="0 0 51 50" fill="none" xmlns="http://www.w3.org/2000/svg">
<rect x="0.25" width="50" height="50" rx="10" fill="#1EC3A1"/>
<path d="M35.312 17.0626L17.3121 35.0626C17.029 35.342 16.6473 35.4986 16.2496 35.4986C15.8518 35.4986 15.4701 35.342 15.1871 35.0626C15.0472 34.9232 14.9363 34.7577 14.8605 34.5753C14.7848 34.393 14.7459 34.1975 14.7459 34.0001C14.7459 33.8027 14.7848 33.6072 14.8605 33.4249C14.9363 33.2425 15.0472 33.077 15.1871 32.9376L33.187 14.9376C33.4688 14.6558 33.851 14.4975 34.2495 14.4975C34.6481 14.4975 35.0303 14.6558 35.312 14.9376C35.5938 15.2194 35.7522 15.6016 35.7522 16.0001C35.7522 16.3986 35.5938 16.7808 35.312 17.0626ZM15.2121 22.0376C14.3905 21.2186 13.8784 20.14 13.7631 18.9857C13.6478 17.8314 13.9365 16.6728 14.5799 15.7075C15.2233 14.7422 16.1816 14.03 17.2914 13.6922C18.4012 13.3545 19.5938 13.4121 20.6659 13.8554C21.7379 14.2986 22.6231 15.0999 23.1704 16.1228C23.7177 17.1456 23.8933 18.3266 23.6672 19.4644C23.4411 20.6023 22.8274 21.6264 21.9306 22.3624C21.0339 23.0983 19.9096 23.5004 18.7496 23.5001C18.0927 23.5006 17.4423 23.3717 16.8353 23.1208C16.2283 22.8698 15.6767 22.5018 15.2121 22.0376ZM16.7496 18.5001C16.7488 18.9629 16.9085 19.4116 17.2014 19.7698C17.4944 20.128 17.9025 20.3735 18.3563 20.4645C18.81 20.5555 19.2812 20.4863 19.6896 20.2688C20.0981 20.0513 20.4185 19.6989 20.5962 19.2716C20.7739 18.8443 20.798 18.3687 20.6642 17.9256C20.5305 17.4826 20.2473 17.0997 19.8629 16.8421C19.4785 16.5845 19.0166 16.4681 18.5561 16.5129C18.0955 16.5577 17.6647 16.7608 17.3371 17.0876C17.1507 17.2726 17.0028 17.4926 16.902 17.7351C16.8011 17.9775 16.7493 18.2375 16.7496 18.5001ZM36.7495 31.5001C36.7486 32.6568 36.3467 33.7775 35.6122 34.6711C34.8777 35.5647 33.8561 36.176 32.7214 36.4008C31.5868 36.6256 30.4092 36.4501 29.3895 35.9041C28.3697 35.3581 27.5708 34.4755 27.1289 33.4065C26.6869 32.3375 26.6293 31.1484 26.9658 30.0417C27.3023 28.935 28.0121 27.9792 28.9743 27.3371C29.9364 26.6951 31.0915 26.4065 32.2425 26.5205C33.3936 26.6346 34.4696 27.1442 35.2871 27.9626C35.7512 28.4273 36.1193 28.9789 36.3702 29.5859C36.6212 30.1928 36.7501 30.8433 36.7495 31.5001ZM33.7495 31.5001C33.7498 31.2375 33.698 30.9775 33.5971 30.7351C33.4963 30.4926 33.3484 30.2726 33.1621 30.0876C32.836 29.764 32.4078 29.5633 31.9505 29.5198C31.4931 29.4762 31.0348 29.5925 30.6535 29.8487C30.2722 30.105 29.9914 30.4854 29.859 30.9253C29.7265 31.3652 29.7505 31.8374 29.927 32.2616C30.1034 32.6858 30.4213 33.0358 30.8267 33.252C31.232 33.4682 31.6998 33.5373 32.1504 33.4475C32.6009 33.3578 33.0065 33.1147 33.298 32.7597C33.5896 32.4046 33.7491 31.9595 33.7495 31.5001Z" fill="white"/>
</svg>
