<svg width="129" height="44" viewBox="0 0 129 44" fill="none" xmlns="http://www.w3.org/2000/svg">
<rect x="0.935547" width="128" height="44" rx="7.09264" fill="black"/>
<path d="M13.2971 11.5137C13.0681 11.7725 12.9355 12.1752 12.9355 12.6969V31.303C12.9355 31.8247 13.0681 32.2275 13.2971 32.4862L13.3536 32.543L23.014 22.1209V21.8748L13.3536 11.4527L13.2971 11.5137Z" fill="url(#paint0_linear_35831_315501)"/>
<path d="M26.2293 25.5967L23.0127 22.1209V21.8748L26.2332 18.399L26.3053 18.4443L30.1192 20.7863C31.2076 21.451 31.2076 22.5447 30.1192 23.2136L26.3053 25.5515L26.2293 25.5967Z" fill="url(#paint1_linear_35831_315501)"/>
<path d="M26.3089 25.5517L23.0163 21.9981L13.2993 32.4864C13.6608 32.8965 14.2504 32.946 14.9208 32.5358L26.3089 25.5517Z" fill="url(#paint2_linear_35831_315501)"/>
<path d="M26.3089 18.4444L14.9208 11.4603C14.2504 11.0544 13.6608 11.1038 13.2993 11.5139L23.0163 21.998L26.3089 18.4444Z" fill="url(#paint3_linear_35831_315501)"/>
<path d="M42.1533 18.5436C41.4347 18.5436 40.804 18.3786 40.2613 18.0486C39.7187 17.7113 39.297 17.2456 38.9963 16.6516C38.6957 16.0503 38.5453 15.3573 38.5453 14.5726C38.5453 13.788 38.6957 13.095 38.9963 12.4936C39.3043 11.8923 39.737 11.423 40.2943 11.0856C40.859 10.7483 41.5227 10.5796 42.2853 10.5796C43.1507 10.5796 43.8693 10.7886 44.4413 11.2066C45.0207 11.6246 45.3947 12.2003 45.5633 12.9336H44.4963C44.3937 12.4716 44.148 12.105 43.7593 11.8336C43.378 11.5623 42.8867 11.4266 42.2853 11.4266C41.7207 11.4266 41.2293 11.555 40.8113 11.8116C40.3933 12.061 40.067 12.4203 39.8323 12.8896C39.605 13.359 39.4913 13.92 39.4913 14.5726C39.4913 15.2253 39.605 15.7863 39.8323 16.2556C40.0597 16.725 40.375 17.088 40.7783 17.3446C41.1817 17.594 41.651 17.7186 42.1863 17.7186C43.0077 17.7186 43.6273 17.4803 44.0453 17.0036C44.4633 16.5196 44.7017 15.8596 44.7603 15.0236H42.5383V14.2976H45.7063V18.4116H44.8593L44.7823 17.1466C44.5037 17.594 44.1627 17.9386 43.7593 18.1806C43.356 18.4226 42.8207 18.5436 42.1533 18.5436ZM49.5655 18.5436C49.0448 18.5436 48.5828 18.4263 48.1795 18.1916C47.7762 17.9496 47.4572 17.616 47.2225 17.1906C46.9952 16.7653 46.8815 16.263 46.8815 15.6836C46.8815 15.1116 46.9952 14.613 47.2225 14.1876C47.4498 13.755 47.7652 13.4213 48.1685 13.1866C48.5792 12.9446 49.0522 12.8236 49.5875 12.8236C50.1155 12.8236 50.5702 12.9446 50.9515 13.1866C51.3402 13.4213 51.6372 13.733 51.8425 14.1216C52.0478 14.5103 52.1505 14.9283 52.1505 15.3756C52.1505 15.4563 52.1468 15.537 52.1395 15.6176C52.1395 15.6983 52.1395 15.79 52.1395 15.8926H47.7945C47.8165 16.3106 47.9118 16.659 48.0805 16.9376C48.2565 17.209 48.4728 17.4143 48.7295 17.5536C48.9935 17.693 49.2722 17.7626 49.5655 17.7626C49.9468 17.7626 50.2658 17.6746 50.5225 17.4986C50.7792 17.3226 50.9662 17.0843 51.0835 16.7836H51.9965C51.8498 17.2896 51.5675 17.7113 51.1495 18.0486C50.7388 18.3786 50.2108 18.5436 49.5655 18.5436ZM49.5655 13.6046C49.1255 13.6046 48.7332 13.7403 48.3885 14.0116C48.0512 14.2756 47.8568 14.6643 47.8055 15.1776H51.2375C51.2155 14.6863 51.0468 14.3013 50.7315 14.0226C50.4162 13.744 50.0275 13.6046 49.5655 13.6046ZM55.3486 18.4116C54.8499 18.4116 54.4576 18.2906 54.1716 18.0486C53.8856 17.8066 53.7426 17.3703 53.7426 16.7396V13.7366H52.7966V12.9556H53.7426L53.8636 11.6466H54.6666V12.9556H56.2726V13.7366H54.6666V16.7396C54.6666 17.0843 54.7363 17.319 54.8756 17.4436C55.0149 17.561 55.2606 17.6196 55.6126 17.6196H56.1846V18.4116H55.3486ZM60.9186 11.7456C60.7353 11.7456 60.5813 11.687 60.4566 11.5696C60.3393 11.445 60.2806 11.291 60.2806 11.1076C60.2806 10.9316 60.3393 10.785 60.4566 10.6676C60.5813 10.5503 60.7353 10.4916 60.9186 10.4916C61.0946 10.4916 61.245 10.5503 61.3696 10.6676C61.4943 10.785 61.5566 10.9316 61.5566 11.1076C61.5566 11.291 61.4943 11.445 61.3696 11.5696C61.245 11.687 61.0946 11.7456 60.9186 11.7456ZM60.4566 18.4116V12.9556H61.3806V18.4116H60.4566ZM65.1455 18.4116C64.6468 18.4116 64.2545 18.2906 63.9685 18.0486C63.6825 17.8066 63.5395 17.3703 63.5395 16.7396V13.7366H62.5935V12.9556H63.5395L63.6605 11.6466H64.4635V12.9556H66.0695V13.7366H64.4635V16.7396C64.4635 17.0843 64.5331 17.319 64.6725 17.4436C64.8118 17.561 65.0575 17.6196 65.4095 17.6196H65.9815V18.4116H65.1455ZM72.6405 18.5436C72.1272 18.5436 71.6652 18.4263 71.2545 18.1916C70.8438 17.957 70.5175 17.627 70.2755 17.2016C70.0408 16.769 69.9235 16.263 69.9235 15.6836C69.9235 15.1043 70.0445 14.602 70.2865 14.1766C70.5285 13.744 70.8548 13.4103 71.2655 13.1756C71.6835 12.941 72.1492 12.8236 72.6625 12.8236C73.1758 12.8236 73.6378 12.941 74.0485 13.1756C74.4592 13.4103 74.7818 13.744 75.0165 14.1766C75.2585 14.602 75.3795 15.1043 75.3795 15.6836C75.3795 16.263 75.2585 16.769 75.0165 17.2016C74.7745 17.627 74.4445 17.957 74.0265 18.1916C73.6158 18.4263 73.1538 18.5436 72.6405 18.5436ZM72.6405 17.7516C72.9558 17.7516 73.2492 17.6746 73.5205 17.5206C73.7918 17.3666 74.0118 17.1356 74.1805 16.8276C74.3492 16.5196 74.4335 16.1383 74.4335 15.6836C74.4335 15.229 74.3492 14.8476 74.1805 14.5396C74.0192 14.2316 73.8028 14.0006 73.5315 13.8466C73.2602 13.6926 72.9705 13.6156 72.6625 13.6156C72.3472 13.6156 72.0538 13.6926 71.7825 13.8466C71.5112 14.0006 71.2912 14.2316 71.1225 14.5396C70.9538 14.8476 70.8695 15.229 70.8695 15.6836C70.8695 16.1383 70.9538 16.5196 71.1225 16.8276C71.2912 17.1356 71.5075 17.3666 71.7715 17.5206C72.0428 17.6746 72.3325 17.7516 72.6405 17.7516ZM76.6643 18.4116V12.9556H77.5003L77.5553 13.9346C77.7313 13.59 77.9843 13.3186 78.3143 13.1206C78.6443 12.9226 79.0183 12.8236 79.4363 12.8236C80.0816 12.8236 80.5949 13.0216 80.9763 13.4176C81.3649 13.8063 81.5593 14.4076 81.5593 15.2216V18.4116H80.6353V15.3206C80.6353 14.184 80.1659 13.6156 79.2273 13.6156C78.7579 13.6156 78.3656 13.788 78.0503 14.1326C77.7423 14.47 77.5883 14.954 77.5883 15.5846V18.4116H76.6643Z" fill="white"/>
<path d="M60.3998 28.6053C58.4605 28.6053 56.8762 30.1982 56.8762 32.3959C56.8762 34.5758 58.4605 36.1854 60.3998 36.1854C62.3432 36.1854 63.9274 34.5758 63.9274 32.3959C63.9274 30.1982 62.3432 28.6053 60.3998 28.6053ZM60.3998 34.6928C59.3357 34.6928 58.4202 33.7449 58.4202 32.3959C58.4202 31.0292 59.3357 30.098 60.3998 30.098C61.4638 30.098 62.3834 31.0292 62.3834 32.3959C62.3834 33.7449 61.4638 34.6928 60.3998 34.6928ZM52.7118 28.6053C50.7684 28.6053 49.1882 30.1982 49.1882 32.3959C49.1882 34.5758 50.7684 36.1854 52.7118 36.1854C54.6541 36.1854 56.2353 34.5758 56.2353 32.3959C56.2353 30.1982 54.6541 28.6053 52.7118 28.6053ZM52.7118 34.6928C51.6467 34.6928 50.7281 33.7449 50.7281 32.3959C50.7281 31.0292 51.6467 30.098 52.7118 30.098C53.7758 30.098 54.6913 31.0292 54.6913 32.3959C54.6913 33.7449 53.7758 34.6928 52.7118 34.6928ZM43.5634 29.7671V31.3778H47.1272C47.0229 32.2779 46.7443 32.9395 46.317 33.4007C45.7968 33.9576 44.9866 34.5758 43.5634 34.5758C41.3702 34.5758 39.6528 32.6655 39.6528 30.2985C39.6528 27.9314 41.3702 26.0211 43.5634 26.0211C44.7492 26.0211 45.6121 26.5212 46.2489 27.1695L47.3006 26.0345C46.4099 25.1166 45.225 24.4115 43.5634 24.4115C40.5559 24.4115 38.0283 27.0526 38.0283 30.2985C38.0283 33.5444 40.5559 36.1854 43.5634 36.1854C45.1889 36.1854 46.4099 35.6106 47.3697 34.5324C48.3533 33.4708 48.6598 31.9782 48.6598 30.773C48.6598 30.3987 48.6309 30.0545 48.5793 29.7671H43.5634ZM80.9723 31.0158C80.6823 30.1681 79.7874 28.6053 77.9648 28.6053C76.1586 28.6053 74.6549 30.1414 74.6549 32.3959C74.6549 34.519 76.1431 36.1854 78.1382 36.1854C79.7513 36.1854 80.6822 35.1239 81.0651 34.5057L79.8679 33.6446C79.4685 34.2751 78.9246 34.6928 78.1382 34.6928C77.3569 34.6928 76.7965 34.3063 76.4373 33.5444L81.1343 31.4469L80.9723 31.0158ZM76.1834 32.2779C76.1432 30.8164 77.2351 30.0679 78.0174 30.0679C78.6305 30.0679 79.1506 30.3987 79.324 30.8721L76.1834 32.2779ZM72.3657 35.9548H73.9097V24.8158H72.3657V35.9548ZM69.8371 29.4497H69.7855C69.4387 29.0063 68.7772 28.6053 67.9391 28.6053C66.1805 28.6053 64.5725 30.2717 64.5725 32.4082C64.5725 34.5324 66.1805 36.1854 67.9391 36.1854C68.7772 36.1854 69.4387 35.7811 69.7855 35.3244H69.8371V35.868C69.8371 37.3171 69.1198 38.0958 67.9629 38.0958C67.0195 38.0958 66.4343 37.3606 66.1928 36.7424L64.8501 37.3472C65.2371 38.352 66.262 39.5884 67.9629 39.5884C69.7731 39.5884 71.3006 38.4388 71.3006 35.6418V28.8359H69.8371V29.4497ZM68.0712 34.6928C67.0072 34.6928 66.1165 33.7315 66.1165 32.4082C66.1165 31.0726 67.0072 30.098 68.0712 30.098C69.1198 30.098 69.9465 31.0726 69.9465 32.4082C69.9465 33.7315 69.1198 34.6928 68.0712 34.6928ZM88.201 24.8158H84.5082V35.9548H86.048V31.7343H88.201C89.9111 31.7343 91.5883 30.3987 91.5883 28.2745C91.5883 26.1514 89.907 24.8158 88.201 24.8158ZM88.2412 30.1848H86.048V26.3653H88.2412C89.391 26.3653 90.0474 27.3956 90.0474 28.2745C90.0474 29.1367 89.391 30.1848 88.2412 30.1848ZM97.7601 28.5842C96.6475 28.5842 95.4906 29.1144 95.0148 30.2895L96.3813 30.9078C96.6754 30.2895 97.2162 30.089 97.788 30.089C98.5868 30.089 99.397 30.607 99.4094 31.5215V31.6385C99.1307 31.4647 98.5342 31.2074 97.8004 31.2074C96.3286 31.2074 94.829 32.0818 94.829 33.7137C94.829 35.2063 96.0345 36.1676 97.3896 36.1676C98.4258 36.1676 98.9976 35.663 99.3568 35.076H99.4094V35.937H100.897V31.6641C100.897 29.6892 99.5302 28.5842 97.7601 28.5842ZM97.5744 34.6883C97.0707 34.6883 96.3689 34.4188 96.3689 33.7449C96.3689 32.8827 97.2441 32.5519 98.0016 32.5519C98.6797 32.5519 98.9976 32.7134 99.4094 32.9261C99.2886 33.9576 98.4661 34.6883 97.5744 34.6883ZM106.315 28.8281L104.545 33.6569H104.492L102.663 28.8281H101.002L103.751 35.5761L102.183 39.3311H103.792L108.028 28.8281H106.315ZM92.4346 35.9548H93.9786V24.8158H92.4346V35.9548Z" fill="white"/>
<defs>
<linearGradient id="paint0_linear_35831_315501" x1="22.1563" y1="31.4968" x2="8.07763" y2="18.4522" gradientUnits="userSpaceOnUse">
<stop stop-color="#00A0FF"/>
<stop offset="0.0066" stop-color="#00A1FF"/>
<stop offset="0.2601" stop-color="#00BEFF"/>
<stop offset="0.5122" stop-color="#00D2FF"/>
<stop offset="0.7604" stop-color="#00DFFF"/>
<stop offset="1" stop-color="#00E3FF"/>
</linearGradient>
<linearGradient id="paint1_linear_35831_315501" x1="31.5365" y1="21.9967" x2="12.674" y2="21.9967" gradientUnits="userSpaceOnUse">
<stop stop-color="#FFE000"/>
<stop offset="0.4087" stop-color="#FFBD00"/>
<stop offset="0.7754" stop-color="#FFA500"/>
<stop offset="1" stop-color="#FF9C00"/>
</linearGradient>
<linearGradient id="paint2_linear_35831_315501" x1="24.5185" y1="20.0663" x2="5.42664" y2="2.37674" gradientUnits="userSpaceOnUse">
<stop stop-color="#FF3A44"/>
<stop offset="1" stop-color="#C31162"/>
</linearGradient>
<linearGradient id="paint3_linear_35831_315501" x1="10.8534" y1="38.6766" x2="19.3787" y2="30.7775" gradientUnits="userSpaceOnUse">
<stop stop-color="#32A071"/>
<stop offset="0.0685" stop-color="#2DA771"/>
<stop offset="0.4762" stop-color="#15CF74"/>
<stop offset="0.8009" stop-color="#06E775"/>
<stop offset="1" stop-color="#00F076"/>
</linearGradient>
</defs>
</svg>
