<svg width="51" height="50" viewBox="0 0 51 50" fill="none" xmlns="http://www.w3.org/2000/svg">
<rect x="0.75" width="50" height="50" rx="10" fill="#1EC3A1"/>
<path d="M33.7507 19.6668H32.4173V17.0002C32.4173 13.3202 29.4307 10.3335 25.7507 10.3335C22.0707 10.3335 19.084 13.3202 19.084 17.0002H21.7507C21.7507 14.7868 23.5373 13.0002 25.7507 13.0002C27.964 13.0002 29.7507 14.7868 29.7507 17.0002V19.6668H17.7507C16.284 19.6668 15.084 20.8668 15.084 22.3335V35.6668C15.084 37.1335 16.284 38.3335 17.7507 38.3335H33.7507C35.2173 38.3335 36.4173 37.1335 36.4173 35.6668V22.3335C36.4173 20.8668 35.2173 19.6668 33.7507 19.6668ZM33.7507 35.6668H17.7507V22.3335H33.7507V35.6668ZM25.7507 31.6668C27.2173 31.6668 28.4173 30.4668 28.4173 29.0002C28.4173 27.5335 27.2173 26.3335 25.7507 26.3335C24.284 26.3335 23.084 27.5335 23.084 29.0002C23.084 30.4668 24.284 31.6668 25.7507 31.6668Z" fill="white"/>
</svg>
