<svg width="51" height="50" viewBox="0 0 51 50" fill="none" xmlns="http://www.w3.org/2000/svg">
<rect x="0.75" width="50" height="50" rx="10" fill="#1EC3A1"/>
<path d="M18.3226 12.2174C18.4907 12.0168 18.5734 11.7583 18.553 11.4973C18.5326 11.2364 18.4108 10.9938 18.2135 10.8217C18.0163 10.6496 17.7595 10.5617 17.4982 10.5769C17.2369 10.592 16.9919 10.709 16.8159 10.9028L15.0932 12.8761C14.1164 13.9955 13.5642 15.4227 13.5332 16.9081L13.4572 20.5334C13.4545 20.6647 13.4777 20.7953 13.5255 20.9177C13.5732 21.04 13.6446 21.1518 13.7355 21.2466C13.8265 21.3414 13.9352 21.4173 14.0555 21.4701C14.1758 21.5228 14.3053 21.5514 14.4366 21.5541C14.5679 21.5568 14.6985 21.5336 14.8208 21.4859C14.9432 21.4381 15.055 21.3668 15.1497 21.2758C15.2445 21.1849 15.3205 21.0762 15.3732 20.9559C15.426 20.8356 15.4545 20.7061 15.4572 20.5748L15.5319 16.9508C15.5533 15.9344 15.9313 14.9579 16.5999 14.1921L18.3226 12.2174Z" fill="white"/>
<path fill-rule="evenodd" clip-rule="evenodd" d="M18.0666 19.2665C18.1561 17.84 18.7859 16.5013 19.8278 15.5228C20.8697 14.5444 22.2453 13.9997 23.6746 13.9998H24.4173V12.9998C24.4173 12.6462 24.5577 12.3071 24.8078 12.057C25.0578 11.807 25.397 11.6665 25.7506 11.6665C26.1042 11.6665 26.4433 11.807 26.6934 12.057C26.9434 12.3071 27.0839 12.6462 27.0839 12.9998V13.9998H27.8266C29.2559 13.9997 30.6315 14.5444 31.6734 15.5228C32.7152 16.5013 33.345 17.84 33.4346 19.2665L33.7292 23.9785C33.8415 25.7751 34.4448 27.5064 35.4733 28.9838C35.6857 29.2893 35.8156 29.6445 35.8501 30.0149C35.8847 30.3854 35.8228 30.7585 35.6704 31.0979C35.5181 31.4374 35.2805 31.7316 34.9808 31.952C34.681 32.1725 34.3293 32.3116 33.9599 32.3558L29.4173 32.8998V34.3332C29.4173 35.3056 29.0309 36.2383 28.3433 36.9259C27.6557 37.6135 26.723 37.9998 25.7506 37.9998C24.7781 37.9998 23.8455 37.6135 23.1579 36.9259C22.4702 36.2383 22.0839 35.3056 22.0839 34.3332V32.8998L17.5413 32.3545C17.172 32.3101 16.8206 32.171 16.521 31.9506C16.2215 31.7303 15.984 31.4362 15.8317 31.097C15.6794 30.7577 15.6174 30.3849 15.6518 30.0146C15.6862 29.6443 15.8158 29.2892 16.0279 28.9838C17.0563 27.5064 17.6596 25.7751 17.7719 23.9785L18.0666 19.2665ZM23.6746 15.9998C22.754 15.9997 21.868 16.3505 21.197 16.9806C20.5259 17.6108 20.1202 18.4731 20.0626 19.3918L19.7693 24.1038C19.6337 26.2651 18.9078 28.3478 17.6706 30.1252C17.6552 30.1473 17.6458 30.1729 17.6433 30.1997C17.6408 30.2265 17.6453 30.2535 17.6563 30.2781C17.6673 30.3026 17.6844 30.3239 17.7061 30.3399C17.7278 30.3559 17.7532 30.3659 17.7799 30.3692L22.7626 30.9678C24.7479 31.2052 26.7533 31.2052 28.7386 30.9678L33.7213 30.3692C33.748 30.3659 33.7734 30.3559 33.7951 30.3399C33.8167 30.3239 33.8339 30.3026 33.8449 30.2781C33.8559 30.2535 33.8604 30.2265 33.8579 30.1997C33.8554 30.1729 33.846 30.1473 33.8306 30.1252C32.5938 28.3477 31.8683 26.265 31.7332 24.1038L31.4386 19.3918C31.3809 18.4731 30.9753 17.6108 30.3042 16.9806C29.6332 16.3505 28.7472 15.9997 27.8266 15.9998H23.6746ZM25.7506 35.9998C24.8306 35.9998 24.0839 35.2532 24.0839 34.3332V33.3332H27.4173V34.3332C27.4173 35.2532 26.6706 35.9998 25.7506 35.9998Z" fill="white"/>
<path d="M33.274 10.8064C33.0743 10.9808 32.952 11.2274 32.934 11.4919C32.9159 11.7564 33.0037 12.0173 33.178 12.2171L34.9007 14.1904C35.5691 14.9568 35.9466 15.9338 35.9674 16.9504L36.0434 20.5731C36.0488 20.8383 36.1595 21.0905 36.3509 21.2742C36.5423 21.4578 36.7988 21.5579 37.064 21.5524C37.3292 21.547 37.5814 21.4363 37.7651 21.2449C37.9487 21.0535 38.0488 20.797 38.0434 20.5318L37.9674 16.9078C37.9364 15.4224 37.3842 13.9952 36.4074 12.8758L34.6847 10.9024C34.5103 10.7027 34.2638 10.5804 33.9992 10.5624C33.7347 10.5444 33.4738 10.6322 33.274 10.8064Z" fill="white"/>
</svg>
